<svg width="105" height="105" viewBox="0 0 105 105" fill="none" xmlns="http://www.w3.org/2000/svg">
<path fill-rule="evenodd" clip-rule="evenodd" d="M89 5H32C17.0883 5 5 17.0883 5 32V89C5 95.0751 9.92487 100 16 100H73C87.9117 100 100 87.9117 100 73V16C100 9.92487 95.0751 5 89 5ZM32 0C14.3269 0 0 14.3269 0 32V89C0 97.8366 7.16344 105 16 105H73C90.6731 105 105 90.6731 105 73V16C105 7.16344 97.8366 0 89 0H32Z" fill="white"/>
<path fill-rule="evenodd" clip-rule="evenodd" d="M37 48C38.8371 48 40.6259 48.2064 42.3446 48.5973C45.0999 57.1463 51.8537 63.9001 60.4027 66.6554C60.7936 68.3741 61 70.1629 61 72C61 85.2548 50.2548 96 37 96C23.7452 96 13 85.2548 13 72C13 58.7452 23.7452 48 37 48ZM33.432 79.336C34.536 79.992 35.84 80.32 37.344 80.32C38.496 80.32 39.48 80.12 40.296 79.72C41.128 79.304 41.784 78.712 42.264 77.944L42.336 80.08H43.848V72.088H37.056V73.888H42.096V74.44C42.096 75.352 41.888 76.112 41.472 76.72C41.056 77.328 40.496 77.784 39.792 78.088C39.088 78.376 38.296 78.52 37.416 78.52C35.656 78.52 34.312 77.96 33.384 76.84C32.472 75.704 32.016 74.144 32.016 72.16C32.016 70.832 32.248 69.696 32.712 68.752C33.192 67.792 33.84 67.064 34.656 66.568C35.488 66.056 36.44 65.8 37.512 65.8C38.616 65.8 39.544 66.04 40.296 66.52C41.064 66.984 41.624 67.672 41.976 68.584L43.728 67.624C43.12 66.392 42.32 65.48 41.328 64.888C40.352 64.296 39.08 64 37.512 64C36.04 64 34.736 64.336 33.6 65.008C32.464 65.664 31.576 66.6 30.936 67.816C30.312 69.032 30 70.48 30 72.16C30 73.84 30.296 75.288 30.888 76.504C31.496 77.72 32.344 78.664 33.432 79.336Z" fill="white" fill-opacity="0.5"/>
<path fill-rule="evenodd" clip-rule="evenodd" d="M69 64C82.2548 64 93 53.2548 93 40C93 26.7452 82.2548 16 69 16C55.7452 16 45 26.7452 45 40C45 53.2548 55.7452 64 69 64ZM72.376 32.6C71.592 32.2 70.664 32 69.592 32H64V47.84H65.92V41.648H69.592C70.664 41.648 71.592 41.456 72.376 41.072C73.176 40.672 73.8 40.112 74.248 39.392C74.696 38.672 74.92 37.816 74.92 36.824C74.92 35.832 74.696 34.976 74.248 34.256C73.8 33.536 73.176 32.984 72.376 32.6ZM72.04 39.08C71.464 39.592 70.552 39.848 69.304 39.848H65.92V33.8H69.304C70.552 33.8 71.464 34.056 72.04 34.568C72.616 35.08 72.904 35.832 72.904 36.824C72.904 37.8 72.616 38.552 72.04 39.08Z" fill="white"/>
</svg>
